<svg width="24" height="24" viewBox="0 0 24 24" fill="none" xmlns="http://www.w3.org/2000/svg">
<path d="M18.9999 20H3.99988C3.46945 20 2.96074 19.7894 2.58567 19.4143C2.2106 19.0392 1.99988 18.5305 1.99988 18V6.00003C1.99988 4.89003 2.88988 4.00003 3.99988 4.00003H9.9999L11.9999 6.00003H18.9999C20.0969 6.00003 20.9999 6.90303 20.9999 8.00003H3.99988V18L6.13988 10.0001H23.2099L20.9299 18.5C20.6999 19.37 19.9199 20 18.9999 20Z" fill="#FF7F67"/>
<path fill-rule="evenodd" clip-rule="evenodd" d="M20.7071 8.70709C20.3166 8.31657 19.6834 8.31657 19.2929 8.70709L16.7071 11.2929C16.3166 11.6834 16.3166 12.3166 16.7071 12.7071L19.2929 15.2929C19.6834 15.6834 20.3166 15.6834 20.7071 15.2929L23.2929 12.7071C23.6834 12.3166 23.6834 11.6834 23.2929 11.2929L20.7071 8.70709ZM12 9C10.8954 9 10 9.89543 10 11V13C10 14.1046 10.8954 15 12 15H14C15.1046 15 16 14.1046 16 13V11C16 9.89543 15.1046 9 14 9H12ZM17 18C17 16.8954 17.8954 16 19 16H21C22.1046 16 23 16.8954 23 18V20C23 21.1046 22.1046 22 21 22H19C17.8954 22 17 21.1046 17 20V18ZM12 16C10.8954 16 10 16.8954 10 18V20C10 21.1046 10.8954 22 12 22H14C15.1046 22 16 21.1046 16 20V18C16 16.8954 15.1046 16 14 16H12Z" fill="#AE4936"/>
</svg>
