<svg width="24" height="24" viewBox="0 0 24 24" fill="none" xmlns="http://www.w3.org/2000/svg">
<path d="M18.9999 20H3.99988C3.46945 20 2.96074 19.7894 2.58567 19.4143C2.2106 19.0392 1.99988 18.5305 1.99988 18V6.00003C1.99988 4.89003 2.88988 4.00003 3.99988 4.00003H9.9999L11.9999 6.00003H18.9999C20.0969 6.00003 20.9999 6.90303 20.9999 8.00003H3.99988V18L6.13988 10.0001H23.2099L20.9299 18.5C20.6999 19.37 19.9199 20 18.9999 20Z" fill="#6E9CF7"/>
<path fill-rule="evenodd" clip-rule="evenodd" d="M11.102 10.682C11.102 9.95409 11.6921 9.364 12.42 9.364H22.3467C23.0746 9.364 23.6647 9.95409 23.6647 10.682C23.6647 11.4099 23.0746 12 22.3467 12H12.42C11.6921 12 11.102 11.4099 11.102 10.682ZM11.102 15.1161C11.102 14.3882 11.6921 13.7981 12.42 13.7981H22.3467C23.0746 13.7981 23.6647 14.3882 23.6647 15.1161C23.6647 15.844 23.0746 16.4341 22.3467 16.4341H12.42C11.6921 16.4341 11.102 15.844 11.102 15.1161ZM12.42 18.2321C11.6921 18.2321 11.102 18.8222 11.102 19.5501C11.102 20.278 11.6921 20.8681 12.42 20.8681H22.3467C23.0746 20.8681 23.6647 20.278 23.6647 19.5501C23.6647 18.8222 23.0746 18.2321 22.3467 18.2321H12.42Z" fill="#DFEAFF"/>
</svg>
