<svg width="24" height="24" viewBox="0 0 24 24" fill="none" xmlns="http://www.w3.org/2000/svg">
<path d="M10 4H4C2.89 4 2 4.89 2 6V18C2 19.097 2.903 20 4 20H20C21.097 20 22 19.097 22 18V8C22 7.46957 21.7893 6.96086 21.4142 6.58579C21.0391 6.21071 20.5304 6 20 6H12L10 4Z" fill="#518BFD"/>
<path fill-rule="evenodd" clip-rule="evenodd" d="M11.1021 10.682C11.1021 9.95409 11.6921 9.364 12.4201 9.364H22.3467C23.0746 9.364 23.6647 9.95409 23.6647 10.682C23.6647 11.4099 23.0746 12 22.3467 12H12.4201C11.6921 12 11.1021 11.4099 11.1021 10.682ZM11.1021 15.1161C11.1021 14.3882 11.6921 13.7981 12.4201 13.7981H22.3467C23.0746 13.7981 23.6647 14.3882 23.6647 15.1161C23.6647 15.844 23.0746 16.4341 22.3467 16.4341H12.4201C11.6921 16.4341 11.1021 15.844 11.1021 15.1161ZM12.4201 18.2321C11.6921 18.2321 11.1021 18.8222 11.1021 19.5501C11.1021 20.278 11.6921 20.8681 12.4201 20.8681H22.3467C23.0746 20.8681 23.6647 20.278 23.6647 19.5501C23.6647 18.8222 23.0746 18.2321 22.3467 18.2321H12.4201Z" fill="#254B96"/>
</svg>
