<svg width="24" height="24" viewBox="0 0 24 24" fill="none" xmlns="http://www.w3.org/2000/svg">
<path d="M10 4H4C2.89 4 2 4.89 2 6V18C2 19.097 2.903 20 4 20H20C21.097 20 22 19.097 22 18V8C22 7.46957 21.7893 6.96086 21.4142 6.58579C21.0391 6.21071 20.5304 6 20 6H12L10 4Z" fill="#66D077"/>
<path fill-rule="evenodd" clip-rule="evenodd" d="M16.1655 9.35024C16.4759 9.03393 16.2519 8.5 15.8087 8.5H11.465C11.1889 8.5 10.965 8.72386 10.965 9V13.3079C10.965 13.7533 11.5036 13.9764 11.8185 13.6614L12.6731 12.8069C12.8791 12.6009 13.2168 12.6139 13.4064 12.8351L15.143 14.862C15.84 15.559 15.84 16.255 15.84 16.255C15.84 16.255 15.84 16.255 15.84 16.255V19.934C15.84 20.2101 16.0639 20.434 16.34 20.434H18.125C18.4011 20.434 18.625 20.2101 18.625 19.934V15.559C18.625 15.559 18.625 15.559 18.625 15.559C18.625 15.559 18.625 14.863 18.256 14.166C17.907 13.5067 17.302 12.8483 17.2376 12.779C17.2336 12.7747 17.2301 12.7708 17.2262 12.7664L15.449 10.7408C15.2764 10.5441 15.2847 10.2476 15.468 10.0608L16.1655 9.35024ZM23.1617 11.0223C23.3509 10.8331 23.3576 10.5285 23.1768 10.3311L21.8536 8.8861C21.661 8.6758 21.3318 8.6689 21.1306 8.87095L18.633 11.3787C18.4481 11.5643 18.4378 11.8612 18.6095 12.0591L18.6192 12.0703C18.6231 12.0748 18.6267 12.0788 18.6306 12.0831C18.695 12.1531 19.2935 12.8111 19.649 13.47V13.47C19.8157 13.7874 20.2657 13.9183 20.5192 13.6648L23.1617 11.0223Z" fill="#E2FFE7"/>
</svg>
