<svg width="24" height="24" viewBox="0 0 24 24" fill="none" xmlns="http://www.w3.org/2000/svg">
<path fill-rule="evenodd" clip-rule="evenodd" d="M6.02399 19.5893C6.33951 19.9048 6.71899 20.0626 7.16243 20.0626H16.8376C17.281 20.0626 17.6608 19.9048 17.9768 19.5893C18.2923 19.2733 18.4501 18.8935 18.4501 18.4501V9.44289C18.4501 9.01521 18.2802 8.60507 17.9778 8.30266L14.0848 4.40969C13.7824 4.10728 13.3723 3.93739 12.9446 3.93739H7.16243C6.71899 3.93739 6.33951 4.09515 6.02399 4.41067C5.70794 4.72672 5.54991 5.10647 5.54991 5.54991V18.4501C5.54991 18.8935 5.70794 19.2733 6.02399 19.5893ZM12.6882 6.2381C12.4342 5.98414 12 6.16401 12 6.52316L12 9.98435C12 10.207 12.1805 10.3875 12.4031 10.3875H15.8643C16.2235 10.3875 16.4033 9.95325 16.1494 9.69929L12.6882 6.2381Z" fill="#7791AD"/>
</svg>
