<svg width="24" height="24" viewBox="0 0 24 24" fill="none" xmlns="http://www.w3.org/2000/svg">
<path d="M7.37949 6.0155H10.1085V13.5815C10.1085 15.2355 9.74683 16.4242 9.02349 17.1475C8.30016 17.8708 7.21483 18.2325 5.76749 18.2325C4.94083 18.2325 4.27949 18.1292 3.78349 17.9225L4.09349 15.6895C4.50683 15.8962 4.99249 15.9995 5.55049 15.9995C6.10849 15.9995 6.55283 15.8238 6.88349 15.4725C7.21416 15.1212 7.37949 14.4908 7.37949 13.5815V6.0155ZM12.4645 15.1935C12.8778 15.4415 13.3532 15.6378 13.8905 15.7825C14.4278 15.9272 14.9652 15.9995 15.5025 15.9995C16.7838 15.9995 17.4245 15.5655 17.4245 14.6975C17.4245 14.3255 17.2695 14.0155 16.9595 13.7675C16.6495 13.5195 16.1225 13.2715 15.3785 13.0235C13.1872 12.2382 12.0915 11.0392 12.0915 9.4265C12.0915 8.35183 12.5048 7.47317 13.3315 6.7905C14.1582 6.10783 15.2745 5.76683 16.6805 5.7675C17.8378 5.7675 18.8715 5.97417 19.7815 6.3875L19.2235 8.6205L18.2315 8.2485C17.7355 8.08317 17.2085 8.0005 16.6505 8.0005C16.0925 8.0005 15.6585 8.11417 15.3485 8.3415C15.0385 8.56883 14.8835 8.85817 14.8835 9.2095C14.8835 9.56083 15.0695 9.8605 15.4415 10.1085C15.6895 10.3152 16.2475 10.5838 17.1155 10.9145C18.1488 11.3278 18.9242 11.8238 19.4415 12.4025C19.9588 12.9812 20.2172 13.6842 20.2165 14.5115C20.2165 15.5862 19.8032 16.4545 18.9765 17.1165C18.1085 17.8605 16.8888 18.2325 15.3175 18.2325C14.1188 18.2325 12.9818 17.9845 11.9065 17.4885L12.4645 15.1935Z" fill="#9465D0"/>
</svg>
