<svg width="24" height="24" viewBox="0 0 24 24" fill="none" xmlns="http://www.w3.org/2000/svg">
<g clip-path="url(#clip0_6_393)">
<path d="M19.2291 9.5497C18.8932 7.84742 17.9767 6.31456 16.6361 5.21295C15.2956 4.11134 13.6142 3.50931 11.8791 3.5097C8.98907 3.5097 6.47907 5.1497 5.22907 7.5497C3.75931 7.70854 2.40008 8.40491 1.41256 9.50503C0.425045 10.6051 -0.121098 12.0314 -0.120926 13.5097C-0.120926 16.8197 2.56907 19.5097 5.87907 19.5097H18.8791C21.6391 19.5097 23.8791 17.2697 23.8791 14.5097C23.8791 11.8697 21.8291 9.7297 19.2291 9.5497ZM18.8791 17.5097H5.87907C3.66907 17.5097 1.87907 15.7197 1.87907 13.5097C1.87907 11.2997 3.66907 9.5097 5.87907 9.5097H6.58907C7.24907 7.1997 9.35907 5.5097 11.8791 5.5097C14.9191 5.5097 17.3791 7.9697 17.3791 11.0097V11.5097H18.8791C20.5391 11.5097 21.8791 12.8497 21.8791 14.5097C21.8791 16.1697 20.5391 17.5097 18.8791 17.5097Z" fill="#65D077"/>
</g>
<defs>
<clipPath id="clip0_6_393">
<rect width="24" height="24" fill="white" transform="translate(0.000244141)"/>
</clipPath>
</defs>
</svg>
