<svg width="24" height="24" viewBox="0 0 24 24" fill="none" xmlns="http://www.w3.org/2000/svg">
<g clip-path="url(#clip0_6_364)">
<path d="M19.2288 9.5497C18.8929 7.84742 17.9764 6.31456 16.6359 5.21295C15.2954 4.11134 13.6139 3.50931 11.8788 3.5097C8.98883 3.5097 6.47883 5.1497 5.22883 7.5497C3.75906 7.70854 2.39984 8.40491 1.41232 9.50503C0.424801 10.6051 -0.121342 12.0314 -0.12117 13.5097C-0.12117 16.8197 2.56883 19.5097 5.87883 19.5097H18.8788C21.6388 19.5097 23.8788 17.2697 23.8788 14.5097C23.8788 11.8697 21.8288 9.7297 19.2288 9.5497ZM18.8788 17.5097H5.87883C3.66883 17.5097 1.87883 15.7197 1.87883 13.5097C1.87883 11.2997 3.66883 9.5097 5.87883 9.5097H6.58883C7.24883 7.1997 9.35883 5.5097 11.8788 5.5097C14.9188 5.5097 17.3788 7.9697 17.3788 11.0097V11.5097H18.8788C20.5388 11.5097 21.8788 12.8497 21.8788 14.5097C21.8788 16.1697 20.5388 17.5097 18.8788 17.5097Z" fill="#9465D0"/>
</g>
<defs>
<clipPath id="clip0_6_364">
<rect width="24" height="24" fill="white"/>
</clipPath>
</defs>
</svg>
