<svg width="24" height="24" viewBox="0 0 24 24" fill="none" xmlns="http://www.w3.org/2000/svg">
<g clip-path="url(#clip0_6_388)">
<path d="M4.00024 20C3.45024 20 2.97958 19.8043 2.58824 19.413C2.19624 19.021 2.00024 18.55 2.00024 18V6C2.00024 5.45 2.19624 4.97933 2.58824 4.588C2.97958 4.196 3.45024 4 4.00024 4H20.0002C20.5502 4 21.0212 4.196 21.4132 4.588C21.8046 4.97933 22.0002 5.45 22.0002 6V18C22.0002 18.55 21.8046 19.021 21.4132 19.413C21.0212 19.8043 20.5502 20 20.0002 20H4.00024ZM4.00024 18H20.0002V8H4.00024V18Z" fill="#9465D0"/>
</g>
<defs>
<clipPath id="clip0_6_388">
<rect width="24" height="24" fill="white" transform="translate(0.000244141)"/>
</clipPath>
</defs>
</svg>
