<svg width="24" height="24" viewBox="0 0 24 24" fill="none" xmlns="http://www.w3.org/2000/svg">
<g clip-path="url(#clip0_6_370)">
<path d="M13.7132 3.70095C12.8523 3.71759 11.9956 3.95665 11.2387 4.43885L7.37178 6.9031C6.84988 7.23091 6.40206 7.66394 6.05691 8.17454C5.71176 8.68514 5.47686 9.26209 5.36721 9.86857C5.18226 10.8922 5.34398 11.9483 5.82677 12.8696C5.4959 13.3716 5.27045 13.9356 5.16408 14.5273C5.05363 15.1472 5.06822 15.7829 5.20698 16.3971C5.34575 17.0112 5.60589 17.5914 5.97212 18.1036C7.51415 20.3099 10.5596 20.9638 12.7614 19.5611L16.6285 17.1073C17.1498 16.7788 17.5971 16.3455 17.9422 15.835C18.2873 15.3246 18.5225 14.748 18.6331 14.1418C18.8173 13.1185 18.6551 12.063 18.172 11.1422C18.5027 10.64 18.7286 10.0762 18.8362 9.48457C18.9464 8.86468 18.9316 8.22904 18.7929 7.61493C18.6541 7.00081 18.3941 6.42058 18.0282 5.90825V5.89636C17.0163 4.44849 15.3568 3.66919 13.7132 3.70095ZM14.0524 5.5949C14.5244 5.61657 14.9849 5.74683 15.3983 5.97554C15.8117 6.20426 16.1667 6.52528 16.4357 6.9136C16.6561 7.22141 16.8127 7.5702 16.8962 7.93944C16.9797 8.30867 16.9885 8.69089 16.9221 9.06358C16.8989 9.18545 16.8682 9.30576 16.8301 9.42381L16.7559 9.64636L16.5588 9.49797C16.1011 9.16204 15.5897 8.90636 15.0464 8.74184L14.8982 8.69885L14.9115 8.55053C14.9286 8.34625 14.8729 8.1425 14.7544 7.97528C14.6455 7.82249 14.4927 7.70646 14.3164 7.64262C14.14 7.57877 13.9483 7.57015 13.7669 7.61789C13.6829 7.64013 13.6029 7.67515 13.5296 7.7217L9.66122 10.1816C9.56673 10.2413 9.48566 10.32 9.42312 10.4126C9.36058 10.5052 9.31794 10.6098 9.29789 10.7198C9.27851 10.8325 9.28164 10.9479 9.3071 11.0593C9.33255 11.1708 9.37983 11.2761 9.44621 11.3692C9.55387 11.5232 9.70582 11.6409 9.88191 11.7066C10.058 11.7723 10.2499 11.7829 10.4321 11.737C10.5159 11.7141 10.5959 11.6791 10.6695 11.6331L12.1522 10.6931C12.3945 10.5377 12.6596 10.4211 12.9379 10.3476C13.5463 10.1891 14.1888 10.2213 14.7783 10.4399C15.3678 10.6584 15.876 11.0527 16.2341 11.5694C16.4543 11.8773 16.6108 12.2261 16.6943 12.5953C16.7778 12.9645 16.7866 13.3467 16.7203 13.7194C16.6549 14.0849 16.5138 14.4328 16.3063 14.7407C16.0987 15.0486 15.8292 15.3098 15.5149 15.5076L11.6464 17.9718C11.4035 18.126 11.1386 18.2425 10.8607 18.3172C10.252 18.4752 9.60939 18.4426 9.01972 18.2239C8.43004 18.0052 7.92165 17.6109 7.56315 17.0941C7.34306 16.7862 7.18679 16.4373 7.10353 16.0681C7.02028 15.6989 7.01172 15.3167 7.07837 14.9441C7.1002 14.823 7.13088 14.7036 7.17016 14.5869L7.24294 14.3643L7.44158 14.5126C7.8983 14.8461 8.40818 15.0997 8.94961 15.2629L9.09779 15.3058L9.08452 15.4542C9.07025 15.6575 9.1274 15.8594 9.24611 16.025C9.35428 16.1805 9.50748 16.2991 9.68509 16.3648C9.8627 16.4306 10.0562 16.4404 10.2395 16.3928C10.3233 16.3702 10.4033 16.3352 10.4767 16.2889L14.3377 13.8247C14.4326 13.765 14.5139 13.6862 14.5765 13.5932C14.639 13.5003 14.6815 13.3953 14.7011 13.2849C14.7208 13.1725 14.7179 13.0573 14.6924 12.946C14.6669 12.8347 14.6194 12.7297 14.5527 12.6371C14.4446 12.4816 14.2914 12.363 14.1138 12.2973C13.9361 12.2315 13.7427 12.2218 13.5593 12.2694C13.4754 12.2916 13.3954 12.3265 13.3221 12.373L11.8394 13.3146C11.5969 13.4684 11.3324 13.5843 11.0551 13.6586C10.4473 13.8156 9.80601 13.7827 9.2175 13.5643C8.629 13.3459 8.12152 12.9524 7.76338 12.4369C7.54394 12.1287 7.38827 11.7797 7.30552 11.4105C7.22277 11.0413 7.21461 10.6593 7.2815 10.2869C7.34696 9.9214 7.48798 9.57356 7.69553 9.26564C7.90309 8.95772 8.17262 8.69651 8.48688 8.49869L12.3597 6.03445C12.6008 5.88096 12.8638 5.76496 13.1397 5.69039C13.4374 5.61306 13.7451 5.58092 14.0524 5.59503V5.5949Z" fill="#EF744D"/>
</g>
<defs>
<clipPath id="clip0_6_370">
<rect width="24" height="24" fill="white" transform="translate(0.000244141)"/>
</clipPath>
</defs>
</svg>
