<svg width="24" height="24" viewBox="0 0 24 24" fill="none" xmlns="http://www.w3.org/2000/svg">
<path d="M11.7205 8.09251H8.49551V17.3325H6.26251V8.09251H3.03751V6.35651H11.5335V8.09251H11.7195H11.7205ZM18.7285 14.5425C18.7285 14.1705 18.5838 13.8398 18.2945 13.5505C18.0878 13.4265 17.8398 13.3232 17.5505 13.2405L16.6825 12.8065C15.4012 12.3932 14.3985 11.9178 13.6745 11.3805C12.9505 10.8432 12.5888 10.1402 12.5895 9.27151C12.5902 8.40284 12.9828 7.69984 13.7675 7.16251C14.5522 6.62517 15.5548 6.35651 16.7755 6.35651C17.9962 6.35651 18.9678 6.67684 19.6905 7.31751C20.4132 7.95817 20.7748 8.75417 20.7755 9.70551H18.7295C18.7295 9.20951 18.5332 8.79617 18.1405 8.46551C17.7478 8.13484 17.2622 7.96951 16.6835 7.96951C16.1048 7.96951 15.6398 8.09351 15.2885 8.34151C14.9372 8.58951 14.7615 8.90984 14.7615 9.30251C14.7615 9.69517 14.9372 10.0052 15.2885 10.2325C15.6398 10.4598 16.2908 10.7388 17.2415 11.0695C18.4402 11.3588 19.3602 11.7722 20.0015 12.3095C20.6428 12.8468 20.9632 13.6015 20.9625 14.5735C20.9618 15.5455 20.5898 16.3002 19.8465 16.8375C19.1032 17.3748 18.1005 17.6435 16.8385 17.6435C15.5765 17.6435 14.5015 17.3025 13.6135 16.6205C12.7255 15.9385 12.3225 15.0598 12.4045 13.9845H14.6375C14.6375 14.6458 14.8545 15.1315 15.2885 15.4415C15.7225 15.7515 16.2805 15.9065 16.9625 15.9065C17.6445 15.9065 18.1095 15.7515 18.3575 15.4415C18.6055 15.1315 18.7295 14.8318 18.7295 14.5425H18.7285Z" fill="#65D077"/>
</svg>
